<svg xmlns="http://www.w3.org/2000/svg" version="1.1" xmlns:xlink="http://www.w3.org/1999/xlink" xmlns:svgjs="http://svgjs.com/svgjs" width="2800" height="200" preserveAspectRatio="none" viewBox="0 0 2800 200"><g mask="url(&quot;#SvgjsMask1692&quot;)" fill="none"><rect width="2800" height="200" x="0" y="0" fill="rgba(216, 219, 226, 1)"></rect><path d="M2582 40L2581 -76" stroke-width="10" stroke="url(#SvgjsLinearGradient1693)" stroke-linecap="round" class="Down"></path><path d="M2717 87L2716 -46" stroke-width="8" stroke="url(#SvgjsLinearGradient1694)" stroke-linecap="round" class="Up"></path><path d="M1869 142L1868 263" stroke-width="8" stroke="url(#SvgjsLinearGradient1693)" stroke-linecap="round" class="Down"></path><path d="M2764 101L2763 23" stroke-width="6" stroke="url(#SvgjsLinearGradient1695)" stroke-linecap="round" class="Down"></path><path d="M65 90L64 186" stroke-width="6" stroke="url(#SvgjsLinearGradient1696)" stroke-linecap="round" class="Down"></path><path d="M1933 167L1932 289" stroke-width="6" stroke="url(#SvgjsLinearGradient1694)" stroke-linecap="round" class="Up"></path><path d="M1654 132L1653 25" stroke-width="8" stroke="url(#SvgjsLinearGradient1696)" stroke-linecap="round" class="Down"></path><path d="M2135 182L2134 275" stroke-width="10" stroke="url(#SvgjsLinearGradient1697)" stroke-linecap="round" class="Up"></path><path d="M2781 190L2780 98" stroke-width="8" stroke="url(#SvgjsLinearGradient1696)" stroke-linecap="round" class="Down"></path><path d="M2351 172L2350 321" stroke-width="6" stroke="url(#SvgjsLinearGradient1696)" stroke-linecap="round" class="Down"></path><path d="M1196 109L1195 -40" stroke-width="8" stroke="url(#SvgjsLinearGradient1698)" stroke-linecap="round" class="Up"></path><path d="M1697 35L1696 -99" stroke-width="10" stroke="url(#SvgjsLinearGradient1695)" stroke-linecap="round" class="Down"></path><path d="M392 188L391 49" stroke-width="6" stroke="url(#SvgjsLinearGradient1694)" stroke-linecap="round" class="Up"></path><path d="M1260 81L1259 -65" stroke-width="10" stroke="url(#SvgjsLinearGradient1693)" stroke-linecap="round" class="Down"></path><path d="M1193 146L1192 263" stroke-width="8" stroke="url(#SvgjsLinearGradient1697)" stroke-linecap="round" class="Up"></path><path d="M1863 4L1862 -85" stroke-width="10" stroke="url(#SvgjsLinearGradient1693)" stroke-linecap="round" class="Down"></path><path d="M1812 20L1811 98" stroke-width="10" stroke="url(#SvgjsLinearGradient1696)" stroke-linecap="round" class="Down"></path><path d="M2479 181L2478 231" stroke-width="6" stroke="url(#SvgjsLinearGradient1697)" stroke-linecap="round" class="Up"></path><path d="M1282 111L1281 5" stroke-width="10" stroke="url(#SvgjsLinearGradient1696)" stroke-linecap="round" class="Down"></path><path d="M2303 192L2302 82" stroke-width="10" stroke="url(#SvgjsLinearGradient1698)" stroke-linecap="round" class="Up"></path><path d="M1251 185L1250 244" stroke-width="10" stroke="url(#SvgjsLinearGradient1698)" stroke-linecap="round" class="Up"></path><path d="M2237 129L2236 23" stroke-width="8" stroke="url(#SvgjsLinearGradient1698)" stroke-linecap="round" class="Up"></path><path d="M2374 119L2373 235" stroke-width="8" stroke="url(#SvgjsLinearGradient1695)" stroke-linecap="round" class="Down"></path><path d="M2616 187L2615 84" stroke-width="8" stroke="url(#SvgjsLinearGradient1693)" stroke-linecap="round" class="Down"></path><path d="M2743 60L2742 178" stroke-width="6" stroke="url(#SvgjsLinearGradient1696)" stroke-linecap="round" class="Down"></path><path d="M1691 138L1690 2" stroke-width="6" stroke="url(#SvgjsLinearGradient1695)" stroke-linecap="round" class="Down"></path><path d="M1296 40L1295 -101" stroke-width="6" stroke="url(#SvgjsLinearGradient1694)" stroke-linecap="round" class="Up"></path><path d="M626 83L625 225" stroke-width="6" stroke="url(#SvgjsLinearGradient1693)" stroke-linecap="round" class="Down"></path><path d="M1883 33L1882 85" stroke-width="6" stroke="url(#SvgjsLinearGradient1696)" stroke-linecap="round" class="Down"></path><path d="M589 150L588 4" stroke-width="10" stroke="url(#SvgjsLinearGradient1696)" stroke-linecap="round" class="Down"></path><path d="M794 32L793 128" stroke-width="8" stroke="url(#SvgjsLinearGradient1698)" stroke-linecap="round" class="Up"></path><path d="M878 131L877 219" stroke-width="10" stroke="url(#SvgjsLinearGradient1698)" stroke-linecap="round" class="Up"></path><path d="M873 183L872 290" stroke-width="6" stroke="url(#SvgjsLinearGradient1697)" stroke-linecap="round" class="Up"></path><path d="M1629 12L1628 114" stroke-width="8" stroke="url(#SvgjsLinearGradient1693)" stroke-linecap="round" class="Down"></path><path d="M2122 107L2121 196" stroke-width="6" stroke="url(#SvgjsLinearGradient1697)" stroke-linecap="round" class="Up"></path><path d="M324 150L323 204" stroke-width="6" stroke="url(#SvgjsLinearGradient1695)" stroke-linecap="round" class="Down"></path><path d="M292 79L291 219" stroke-width="6" stroke="url(#SvgjsLinearGradient1696)" stroke-linecap="round" class="Down"></path><path d="M1079 36L1078 138" stroke-width="6" stroke="url(#SvgjsLinearGradient1695)" stroke-linecap="round" class="Down"></path><path d="M1587 126L1586 29" stroke-width="8" stroke="url(#SvgjsLinearGradient1696)" stroke-linecap="round" class="Down"></path><path d="M1031 195L1030 320" stroke-width="10" stroke="url(#SvgjsLinearGradient1696)" stroke-linecap="round" class="Down"></path><path d="M1070 4L1069 -73" stroke-width="8" stroke="url(#SvgjsLinearGradient1697)" stroke-linecap="round" class="Up"></path><path d="M1831 93L1830 32" stroke-width="8" stroke="url(#SvgjsLinearGradient1694)" stroke-linecap="round" class="Up"></path><path d="M2488 20L2487 -125" stroke-width="8" stroke="url(#SvgjsLinearGradient1697)" stroke-linecap="round" class="Up"></path><path d="M354 74L353 126" stroke-width="6" stroke="url(#SvgjsLinearGradient1697)" stroke-linecap="round" class="Up"></path><path d="M752 181L751 323" stroke-width="10" stroke="url(#SvgjsLinearGradient1693)" stroke-linecap="round" class="Down"></path><path d="M977 80L976 185" stroke-width="10" stroke="url(#SvgjsLinearGradient1693)" stroke-linecap="round" class="Down"></path><path d="M1396 64L1395 138" stroke-width="6" stroke="url(#SvgjsLinearGradient1696)" stroke-linecap="round" class="Down"></path><path d="M2375 86L2374 -58" stroke-width="10" stroke="url(#SvgjsLinearGradient1696)" stroke-linecap="round" class="Down"></path><path d="M2432 159L2431 59" stroke-width="8" stroke="url(#SvgjsLinearGradient1697)" stroke-linecap="round" class="Up"></path><path d="M489 133L488 -12" stroke-width="10" stroke="url(#SvgjsLinearGradient1696)" stroke-linecap="round" class="Down"></path><path d="M2110 187L2109 292" stroke-width="6" stroke="url(#SvgjsLinearGradient1696)" stroke-linecap="round" class="Down"></path><path d="M1602 13L1601 89" stroke-width="6" stroke="url(#SvgjsLinearGradient1694)" stroke-linecap="round" class="Up"></path><path d="M1381 131L1380 216" stroke-width="10" stroke="url(#SvgjsLinearGradient1693)" stroke-linecap="round" class="Down"></path><path d="M1733 197L1732 131" stroke-width="6" stroke="url(#SvgjsLinearGradient1694)" stroke-linecap="round" class="Up"></path><path d="M1312 68L1311 4" stroke-width="6" stroke="url(#SvgjsLinearGradient1695)" stroke-linecap="round" class="Down"></path><path d="M1024 131L1023 -13" stroke-width="8" stroke="url(#SvgjsLinearGradient1694)" stroke-linecap="round" class="Up"></path><path d="M494 29L493 130" stroke-width="6" stroke="url(#SvgjsLinearGradient1697)" stroke-linecap="round" class="Up"></path><path d="M2177 185L2176 322" stroke-width="6" stroke="url(#SvgjsLinearGradient1694)" stroke-linecap="round" class="Up"></path><path d="M1041 53L1040 -75" stroke-width="8" stroke="url(#SvgjsLinearGradient1696)" stroke-linecap="round" class="Down"></path><path d="M2033 177L2032 41" stroke-width="6" stroke="url(#SvgjsLinearGradient1696)" stroke-linecap="round" class="Down"></path><path d="M2214 65L2213 175" stroke-width="6" stroke="url(#SvgjsLinearGradient1697)" stroke-linecap="round" class="Up"></path><path d="M6 111L5 191" stroke-width="8" stroke="url(#SvgjsLinearGradient1698)" stroke-linecap="round" class="Up"></path><path d="M561 124L560 241" stroke-width="8" stroke="url(#SvgjsLinearGradient1694)" stroke-linecap="round" class="Up"></path><path d="M991 98L990 151" stroke-width="8" stroke="url(#SvgjsLinearGradient1697)" stroke-linecap="round" class="Up"></path><path d="M794 81L793 149" stroke-width="6" stroke="url(#SvgjsLinearGradient1694)" stroke-linecap="round" class="Up"></path><path d="M2639 82L2638 213" stroke-width="8" stroke="url(#SvgjsLinearGradient1694)" stroke-linecap="round" class="Up"></path><path d="M1993 63L1992 162" stroke-width="10" stroke="url(#SvgjsLinearGradient1697)" stroke-linecap="round" class="Up"></path><path d="M109 163L108 62" stroke-width="10" stroke="url(#SvgjsLinearGradient1697)" stroke-linecap="round" class="Up"></path><path d="M2013 189L2012 277" stroke-width="10" stroke="url(#SvgjsLinearGradient1694)" stroke-linecap="round" class="Up"></path><path d="M2494 53L2493 -4" stroke-width="8" stroke="url(#SvgjsLinearGradient1697)" stroke-linecap="round" class="Up"></path></g><defs><mask id="SvgjsMask1692"><rect width="2800" height="200" fill="#ffffff"></rect></mask><linearGradient x1="0%" y1="0%" x2="0%" y2="100%" id="SvgjsLinearGradient1693"><stop stop-color="rgba(247, 135, 100, 0)" offset="0"></stop><stop stop-color="rgba(247, 135, 100, 1)" offset="1"></stop></linearGradient><linearGradient x1="0%" y1="100%" x2="0%" y2="0%" id="SvgjsLinearGradient1694"><stop stop-color="rgba(147, 31, 29, 0)" offset="0"></stop><stop stop-color="rgba(147, 31, 29, 1)" offset="1"></stop></linearGradient><linearGradient x1="0%" y1="0%" x2="0%" y2="100%" id="SvgjsLinearGradient1695"><stop stop-color="rgba(89, 36, 42, 0)" offset="0"></stop><stop stop-color="rgba(89, 36, 42, 1)" offset="1"></stop></linearGradient><linearGradient x1="0%" y1="0%" x2="0%" y2="100%" id="SvgjsLinearGradient1696"><stop stop-color="rgba(147, 31, 29, 0)" offset="0"></stop><stop stop-color="rgba(147, 31, 29, 1)" offset="1"></stop></linearGradient><linearGradient x1="0%" y1="100%" x2="0%" y2="0%" id="SvgjsLinearGradient1697"><stop stop-color="rgba(89, 36, 42, 0)" offset="0"></stop><stop stop-color="rgba(89, 36, 42, 1)" offset="1"></stop></linearGradient><linearGradient x1="0%" y1="100%" x2="0%" y2="0%" id="SvgjsLinearGradient1698"><stop stop-color="rgba(247, 135, 100, 0)" offset="0"></stop><stop stop-color="rgba(247, 135, 100, 1)" offset="1"></stop></linearGradient></defs></svg>