<svg xmlns="http://www.w3.org/2000/svg" version="1.1" xmlns:xlink="http://www.w3.org/1999/xlink" xmlns:svgjs="http://svgjs.com/svgjs" width="2880" height="200" preserveAspectRatio="none" viewBox="0 0 2880 200"><g mask="url(&quot;#SvgjsMask1078&quot;)" fill="none"><rect width="2880" height="200" x="0" y="0" fill="rgba(27, 34, 41, 1)"></rect><path d="M0 43.05L10 21.99L20 16.41L30 31.77L40 9.54L50 26.09L60 10.49L70 18.2L80 11.94L90 28.86L100 22.15L110 43.56L120 54.14L130 78.41L140 61.85L150 72.28L160 84.51L170 73.59L180 81.15L190 103.64L200 103.02L210 112.42L220 94.09L230 82.43L240 87.08L250 83.61L260 58.86L270 82.78L280 106.94L290 94.47L300 96.84L310 113.45L320 112.85L330 116.11L340 111.83L350 95.01L360 102.63L370 97.27L380 83.17L390 67.19L400 78.5L410 83.73L420 69.63L430 68.22L440 82.8L450 66.24L460 64.07L470 48.83L480 40.98L490 29.69L500 47.2L510 24.74L520 48.11L530 34.11L540 35.78L550 16.26L560 23.68L570 46.67L580 45.99L590 46.32L600 60.62L610 43.14L620 62.91L630 81L640 82.35L650 64.15L660 79.86L670 95.09L680 81.47L690 56.97L700 63L710 41.43L720 62.29L730 73.85L740 56.85L750 60.84L760 84.02L770 73.68L780 93.5L790 94.2L800 73.86L810 58.43L820 37.44L830 52.12L840 71.81L850 78.89L860 55.17L870 66.25L880 51.06L890 61.6L900 52.11L910 60.87L920 75.99L930 72.84L940 83.8L950 99.99L960 117.84L970 126L980 138.19L990 135.33L1000 131.56L1010 120.64L1020 103.57L1030 111.56L1040 105.7L1050 92.28L1060 100.36L1070 118.5L1080 108.3L1090 115.32L1100 127.44L1110 104.24L1120 110.92L1130 105.29L1140 119.2L1150 111.78L1160 108.81L1170 114.53L1180 116.08L1190 133.22L1200 120.09L1210 117.46L1220 132.21L1230 139.52L1240 123.55L1250 113.33L1260 105.75L1270 130.27L1280 116.44L1290 95.38L1300 111.13L1310 132.81L1320 123L1330 123.85L1340 132.5L1350 120.82L1360 108.98L1370 100.57L1380 91.23L1390 82.57L1400 100.81L1410 120.38L1420 99.28L1430 121.1L1440 127.51L1450 140.88L1460 152.4L1470 146.09L1480 140.59L1490 127.05L1500 128.65L1510 118.86L1520 128.84L1530 114.97L1540 135.1L1550 135.77L1560 111.11L1570 113.94L1580 120.24L1590 136.36L1600 158.16L1610 133.56L1620 109.44L1630 89.85L1640 109.89L1650 114.2L1660 95.05L1670 75.32L1680 96.31L1690 108.57L1700 99.68L1710 92.53L1720 79.07L1730 81.76L1740 69.11L1750 50.67L1760 55.34L1770 60.68L1780 41.07L1790 61.87L1800 56.71L1810 77.08L1820 79.13L1830 70.43L1840 91.76L1850 75.68L1860 58.46L1870 73.53L1880 77.6L1890 59.4L1900 51.83L1910 66.22L1920 41.24L1930 35.21L1940 14.93L1950 9.45L1960 9.39L1970 22.83L1980 46.04L1990 54.94L2000 63.68L2010 76.2L2020 69.87L2030 49.75L2040 71.26L2050 88.59L2060 106.21L2070 84.86L2080 70.6L2090 64.28L2100 58.78L2110 55.23L2120 51.37L2130 45.08L2140 25.51L2150 45.16L2160 63.34L2170 86.76L2180 76.93L2190 96.11L2200 89.38L2210 74.7L2220 79.27L2230 91.02L2240 99.87L2250 90.09L2260 100.25L2270 110.95L2280 99.23L2290 83.06L2300 81.87L2310 74.95L2320 58.04L2330 55.06L2340 35.4L2350 21.23L2360 2.77L2370 3.76L2380 22.67L2390 6.28L2400 2.26L2410 4.19L2420 0.9L2430 1.48L2440 16.08L2450 23.12L2460 19.95L2470 13.4L2480 32.79L2490 39.52L2500 22.19L2510 13.67L2520 24.15L2530 43.73L2540 60.6L2550 48.49L2560 63.14L2570 48.43L2580 67.55L2590 77.26L2600 86.93L2610 74.79L2620 52.69L2630 73.74L2640 78.28L2650 71.19L2660 60.93L2670 60.75L2680 61.2L2690 60.66L2700 85.57L2710 76.25L2720 69.24L2730 91.18L2740 80.84L2750 74.13L2760 68.37L2770 47.77L2780 66.55L2790 47.74L2800 44.7L2810 52.14L2820 38.72L2830 50.64L2840 49.21L2850 50.05L2860 36.91L2870 32.41L2880 18.21" stroke="rgba(249, 250, 251, 1)" stroke-width="2"></path><path d="M0 43.05L10 21.99L20 16.41L30 31.77L40 9.54L50 26.09L60 10.49L70 18.2L80 11.94L90 28.86L100 22.15L110 43.56L120 54.14L130 78.41L140 61.85L150 72.28L160 84.51L170 73.59L180 81.15L190 103.64L200 103.02L210 112.42L220 94.09L230 82.43L240 87.08L250 83.61L260 58.86L270 82.78L280 106.94L290 94.47L300 96.84L310 113.45L320 112.85L330 116.11L340 111.83L350 95.01L360 102.63L370 97.27L380 83.17L390 67.19L400 78.5L410 83.73L420 69.63L430 68.22L440 82.8L450 66.24L460 64.07L470 48.83L480 40.98L490 29.69L500 47.2L510 24.74L520 48.11L530 34.11L540 35.78L550 16.26L560 23.68L570 46.67L580 45.99L590 46.32L600 60.62L610 43.14L620 62.91L630 81L640 82.35L650 64.15L660 79.86L670 95.09L680 81.47L690 56.97L700 63L710 41.43L720 62.29L730 73.85L740 56.85L750 60.84L760 84.02L770 73.68L780 93.5L790 94.2L800 73.86L810 58.43L820 37.44L830 52.12L840 71.81L850 78.89L860 55.17L870 66.25L880 51.06L890 61.6L900 52.11L910 60.87L920 75.99L930 72.84L940 83.8L950 99.99L960 117.84L970 126L980 138.19L990 135.33L1000 131.56L1010 120.64L1020 103.57L1030 111.56L1040 105.7L1050 92.28L1060 100.36L1070 118.5L1080 108.3L1090 115.32L1100 127.44L1110 104.24L1120 110.92L1130 105.29L1140 119.2L1150 111.78L1160 108.81L1170 114.53L1180 116.08L1190 133.22L1200 120.09L1210 117.46L1220 132.21L1230 139.52L1240 123.55L1250 113.33L1260 105.75L1270 130.27L1280 116.44L1290 95.38L1300 111.13L1310 132.81L1320 123L1330 123.85L1340 132.5L1350 120.82L1360 108.98L1370 100.57L1380 91.23L1390 82.57L1400 100.81L1410 120.38L1420 99.28L1430 121.1L1440 127.51L1450 140.88L1460 152.4L1470 146.09L1480 140.59L1490 127.05L1500 128.65L1510 118.86L1520 128.84L1530 114.97L1540 135.1L1550 135.77L1560 111.11L1570 113.94L1580 120.24L1590 136.36L1600 158.16L1610 133.56L1620 109.44L1630 89.85L1640 109.89L1650 114.2L1660 95.05L1670 75.32L1680 96.31L1690 108.57L1700 99.68L1710 92.53L1720 79.07L1730 81.76L1740 69.11L1750 50.67L1760 55.34L1770 60.68L1780 41.07L1790 61.87L1800 56.71L1810 77.08L1820 79.13L1830 70.43L1840 91.76L1850 75.68L1860 58.46L1870 73.53L1880 77.6L1890 59.4L1900 51.83L1910 66.22L1920 41.24L1930 35.21L1940 14.93L1950 9.45L1960 9.39L1970 22.83L1980 46.04L1990 54.94L2000 63.68L2010 76.2L2020 69.87L2030 49.75L2040 71.26L2050 88.59L2060 106.21L2070 84.86L2080 70.6L2090 64.28L2100 58.78L2110 55.23L2120 51.37L2130 45.08L2140 25.51L2150 45.16L2160 63.34L2170 86.76L2180 76.93L2190 96.11L2200 89.38L2210 74.7L2220 79.27L2230 91.02L2240 99.87L2250 90.09L2260 100.25L2270 110.95L2280 99.23L2290 83.06L2300 81.87L2310 74.95L2320 58.04L2330 55.06L2340 35.4L2350 21.23L2360 2.77L2370 3.76L2380 22.67L2390 6.28L2400 2.26L2410 4.19L2420 0.9L2430 1.48L2440 16.08L2450 23.12L2460 19.95L2470 13.4L2480 32.79L2490 39.52L2500 22.19L2510 13.67L2520 24.15L2530 43.73L2540 60.6L2550 48.49L2560 63.14L2570 48.43L2580 67.55L2590 77.26L2600 86.93L2610 74.79L2620 52.69L2630 73.74L2640 78.28L2650 71.19L2660 60.93L2670 60.75L2680 61.2L2690 60.66L2700 85.57L2710 76.25L2720 69.24L2730 91.18L2740 80.84L2750 74.13L2760 68.37L2770 47.77L2780 66.55L2790 47.74L2800 44.7L2810 52.14L2820 38.72L2830 50.64L2840 49.21L2850 50.05L2860 36.91L2870 32.41L2880 18.21L2880 200L0 200z" fill="url(#SvgjsLinearGradient1079)"></path></g><defs><mask id="SvgjsMask1078"><rect width="2880" height="200" fill="#ffffff"></rect></mask><linearGradient x1="50%" y1="0%" x2="50%" y2="100%" id="SvgjsLinearGradient1079"><stop stop-opacity="0.65" stop-color="rgba(249, 250, 251, 1)" offset="0"></stop><stop stop-opacity="0" stop-color="#ffffff" offset="0.8"></stop></linearGradient></defs></svg>