<svg xmlns="http://www.w3.org/2000/svg" version="1.1" xmlns:xlink="http://www.w3.org/1999/xlink" xmlns:svgjs="http://svgjs.com/svgjs" width="1440" height="200" preserveAspectRatio="none" viewBox="0 0 1440 200"><g mask="url(&quot;#SvgjsMask1036&quot;)" fill="none"><rect width="1440" height="200" x="0" y="0" fill="rgba(27, 34, 41, 1)"></rect><path d="M0 177.26L10 181.28L20 198.1L30 180.53L40 190.22L50 169.16L60 155.97L70 173.66L80 161.84L90 158.68L100 161.24L110 184.7L120 161.03L130 182.41L140 179.05L150 158.11L160 139.8L170 114.82L180 129.08L190 138.05L200 128.77L210 115.71L220 114.73L230 127.4L240 149.75L250 140.18L260 163.1L270 139.53L280 141.65L290 161.87L300 183.31L310 179.14L320 168.61L330 145.01L340 156.85L350 170.35L360 155.88L370 148.65L380 130.19L390 113.31L400 133.54L410 135.84L420 144.1L430 137.9L440 113.65L450 131.71L460 120.68L470 101.19L480 105.98L490 116.4L500 132.39L510 110.65L520 87.96L530 94.04L540 92.32L550 110.31L560 96L570 104.97L580 108.4L590 95.32L600 92.47L610 78.54L620 103.46L630 104.94L640 87.27L650 103.77L660 96.07L670 114.39L680 120.32L690 145.19L700 127.42L710 104.33L720 108.01L730 90.3L740 99.83L750 118.36L760 125.31L770 103.24L780 98.72L790 95.24L800 93.22L810 75.96L820 64.6L830 57.94L840 41.35L850 54.73L860 59.58L870 43.44L880 45.29L890 59.24L900 41.77L910 46.75L920 53.07L930 75.34L940 93.17L950 105.73L960 119.96L970 140.7L980 156.46L990 159.08L1000 175.45L1010 156.39L1020 178.35L1030 156.54L1040 178.09L1050 197.14L1060 175.57L1070 173.76L1080 167.71L1090 146.35L1100 145.53L1110 144.24L1120 155.93L1130 171.51L1140 189.72L1150 166.44L1160 160.57L1170 159.26L1180 138.79L1190 134.51L1200 131.25L1210 113.67L1220 96.82L1230 81.65L1240 100.93L1250 121.27L1260 145.64L1270 137.75L1280 127.26L1290 147.54L1300 154.58L1310 156.19L1320 141.48L1330 124.23L1340 139.49L1350 146.73L1360 169.54L1370 182.07L1380 173.07L1390 190.17L1400 197.6L1410 198.5L1420 192.61L1430 170.05L1440 192.82" stroke="rgba(247, 135, 100, 1)" stroke-width="2"></path><path d="M0 177.26L10 181.28L20 198.1L30 180.53L40 190.22L50 169.16L60 155.97L70 173.66L80 161.84L90 158.68L100 161.24L110 184.7L120 161.03L130 182.41L140 179.05L150 158.11L160 139.8L170 114.82L180 129.08L190 138.05L200 128.77L210 115.71L220 114.73L230 127.4L240 149.75L250 140.18L260 163.1L270 139.53L280 141.65L290 161.87L300 183.31L310 179.14L320 168.61L330 145.01L340 156.85L350 170.35L360 155.88L370 148.65L380 130.19L390 113.31L400 133.54L410 135.84L420 144.1L430 137.9L440 113.65L450 131.71L460 120.68L470 101.19L480 105.98L490 116.4L500 132.39L510 110.65L520 87.96L530 94.04L540 92.32L550 110.31L560 96L570 104.97L580 108.4L590 95.32L600 92.47L610 78.54L620 103.46L630 104.94L640 87.27L650 103.77L660 96.07L670 114.39L680 120.32L690 145.19L700 127.42L710 104.33L720 108.01L730 90.3L740 99.83L750 118.36L760 125.31L770 103.24L780 98.72L790 95.24L800 93.22L810 75.96L820 64.6L830 57.94L840 41.35L850 54.73L860 59.58L870 43.44L880 45.29L890 59.24L900 41.77L910 46.75L920 53.07L930 75.34L940 93.17L950 105.73L960 119.96L970 140.7L980 156.46L990 159.08L1000 175.45L1010 156.39L1020 178.35L1030 156.54L1040 178.09L1050 197.14L1060 175.57L1070 173.76L1080 167.71L1090 146.35L1100 145.53L1110 144.24L1120 155.93L1130 171.51L1140 189.72L1150 166.44L1160 160.57L1170 159.26L1180 138.79L1190 134.51L1200 131.25L1210 113.67L1220 96.82L1230 81.65L1240 100.93L1250 121.27L1260 145.64L1270 137.75L1280 127.26L1290 147.54L1300 154.58L1310 156.19L1320 141.48L1330 124.23L1340 139.49L1350 146.73L1360 169.54L1370 182.07L1380 173.07L1390 190.17L1400 197.6L1410 198.5L1420 192.61L1430 170.05L1440 192.82L1440 200L0 200z" fill="url(#SvgjsLinearGradient1037)"></path></g><defs><mask id="SvgjsMask1036"><rect width="1440" height="200" fill="#ffffff"></rect></mask><linearGradient x1="50%" y1="0%" x2="50%" y2="100%" id="SvgjsLinearGradient1037"><stop stop-opacity="0.65" stop-color="rgba(247, 135, 100, 1)" offset="0"></stop><stop stop-opacity="0" stop-color="#ffffff" offset="0.8"></stop></linearGradient></defs></svg>